<?xml version="1.0" encoding="UTF-8"?>
<svg id="Layer_1" data-name="Layer 1" xmlns="http://www.w3.org/2000/svg" xmlns:xlink="http://www.w3.org/1999/xlink" viewBox="0 0 59.15 59.21">
  <defs>
    <style>
      .cls-1 {
        fill: #fff;
      }

      .cls-2 {
        clip-path: url(#clippath-2);
      }

      .cls-3 {
        clip-path: url(#clippath-1);
      }

      .cls-4 {
        clip-path: url(#clippath);
      }

      .cls-5 {
        fill: none;
      }

      .cls-6 {
        fill: #00bf63;
        fill-rule: evenodd;
      }
    </style>
    <clipPath id="clippath">
      <rect class="cls-5" x=".08" y=".11" width="58.99" height="58.99"/>
    </clipPath>
    <clipPath id="clippath-1">
      <rect class="cls-5" x="39.5" y="3.71" width="10.59" height="10.59"/>
    </clipPath>
    <clipPath id="clippath-2">
      <circle class="cls-5" cx="44.8" cy="9" r="5.3"/>
    </clipPath>
  </defs>
  <g class="cls-4">
    <path class="cls-6" d="m29.58,59.1c16.24,0,29.49-13.25,29.49-29.49S45.82.11,29.58.11.08,13.36.08,29.61s13.25,29.49,29.5,29.49"/>
    <path class="cls-1" d="m16.48,40.5c0,1.15-.93,2.08-2.08,2.08s-2.08-.93-2.08-2.08v-16.71c0-1.96.8-3.75,2.09-5.04,1.29-1.29,3.08-2.09,5.04-2.09s3.75.8,5.04,2.09c1.29,1.29,2.09,3.08,2.09,5.04v11.65c0,.81.34,1.55.89,2.1.55.55,1.29.89,2.1.89s1.56-.33,2.11-.88c.54-.54.88-1.29.88-2.11v-11.65c0-1.96.8-3.75,2.09-5.04,1.29-1.29,3.08-2.09,5.04-2.09s3.74.81,5.04,2.1c1.29,1.29,2.1,3.08,2.1,5.04v16.71c0,1.15-.93,2.08-2.08,2.08s-2.08-.93-2.08-2.08v-16.71c0-.81-.34-1.56-.88-2.1-.55-.54-1.29-.88-2.1-.88s-1.57.34-2.11.88-.88,1.29-.88,2.11v11.65c0,1.96-.8,3.75-2.09,5.04-1.29,1.29-3.08,2.09-5.04,2.09s-3.74-.81-5.03-2.1c-1.29-1.29-2.1-3.08-2.1-5.03v-11.65c0-.82-.33-1.57-.88-2.11-.54-.54-1.29-.88-2.11-.88s-1.57.34-2.11.88c-.54.54-.88,1.29-.88,2.11v16.71"/>
  </g>
  <g class="cls-3">
    <g class="cls-2">
      <rect class="cls-1" x="39.5" y="3.71" width="10.59" height="10.59"/>
    </g>
  </g>
</svg>